<svg width="61" height="60" viewBox="0 0 61 60" fill="none" xmlns="http://www.w3.org/2000/svg">
<path d="M13.525 12.5H6.02502M34.525 17.5V32.5M42.025 25H27.025M14.125 12.5L19.525 32.1C19.9757 33.6456 20.9119 35.0052 22.195 35.9776C23.4781 36.9501 25.0401 37.4839 26.65 37.5H48.5V12.5H14.125ZM31.025 46.25C31.025 48.3211 29.3461 50 27.275 50C25.204 50 23.525 48.3211 23.525 46.25C23.525 44.1789 25.204 42.5 27.275 42.5C29.3461 42.5 31.025 44.1789 31.025 46.25ZM48.525 46.25C48.525 48.3211 46.8461 50 44.775 50C42.704 50 41.025 48.3211 41.025 46.25C41.025 44.1789 42.704 42.5 44.775 42.5C46.8461 42.5 48.525 44.1789 48.525 46.25Z" stroke="white" stroke-width="2" stroke-linecap="round" stroke-linejoin="round"/>
</svg>
