<svg width="200" height="200" viewBox="0 0 200 200" fill="none" xmlns="http://www.w3.org/2000/svg">
<path opacity="0.4" d="M143.328 200H56.6618C22.769 200 0 176.229 0 140.843V59.1672C0 23.7811 22.769 0 56.6618 0H143.338C177.231 0 200 23.7811 200 59.1672V140.843C200 176.229 177.231 200 143.328 200" fill="#EDF0F2"/>
<path fill-rule="evenodd" clip-rule="evenodd" d="M92.4504 66.7501C92.4504 80.4501 81.3004 91.6001 67.6004 91.6001C53.8904 91.6001 42.7504 80.4501 42.7504 66.7501C42.7504 53.0501 53.8904 41.8901 67.6004 41.8901C81.3004 41.8901 92.4504 53.0501 92.4504 66.7501ZM174.004 120.876C176.334 123.136 178.004 125.716 179.104 128.466C182.434 136.786 180.704 146.786 177.144 155.026C172.924 164.836 164.844 172.246 154.664 175.486C150.144 176.936 145.404 177.556 140.674 177.556H56.8642C48.5242 177.556 41.1442 175.616 35.0942 171.976C31.3042 169.696 30.6342 164.446 33.4442 161.026C38.1442 155.326 42.7842 149.606 47.4642 143.836C56.3842 132.796 62.3942 129.596 69.0742 132.406C71.7842 133.566 74.5042 135.316 77.3042 137.156C84.7642 142.096 95.1342 148.876 108.794 141.516C118.131 136.41 123.552 127.674 128.269 120.069L128.364 119.916C128.682 119.407 128.997 118.899 129.31 118.391C130.915 115.799 132.494 113.246 134.284 110.896C136.504 107.986 144.744 98.8862 155.394 105.366C162.184 109.446 167.894 114.966 174.004 120.876Z" fill="#808191"/>
</svg>
