<svg width="164" height="48" viewBox="0 0 164 48" fill="none" xmlns="http://www.w3.org/2000/svg">
<path d="M24 3.97385L44.7846 14.9804V36.9935L24 48L3.21539 36.9935V14.9804L24 3.97385Z" fill="#009ED8"/>
<path d="M14.3555 31.6876V12.0824C16.592 9.53199 18.6375 11.0197 19.3807 12.0824V21.207L42.4834 0.0993356C45.6477 -0.494318 46.1391 1.72088 45.9893 2.90269L14.3555 31.6876Z" fill="#0ACF83"/>
<path d="M14.3555 41.7612V35.5538L19.9253 30.7198L23.2193 33.6312L14.3555 41.7612Z" fill="white"/>
<path d="M36.4584 41.414L22.2012 28.3577L35.6765 15.888C39.5095 15.4925 39.5095 17.8473 39.0304 19.0741L28.9322 28.3577L40.7824 39.1222L36.4584 41.414Z" fill="white"/>
<path d="M64.9723 31L60.8672 16.4545H63.701L66.3217 27.1435H66.4567L69.255 16.4545H71.8331L74.6385 27.1506H74.7663L77.3871 16.4545H80.2209L76.1158 31H73.5163L70.6044 20.794H70.4908L67.5717 31H64.9723ZM83.9602 31.2202C83.2689 31.2202 82.6463 31.0971 82.0923 30.8509C81.5431 30.5999 81.1075 30.2306 80.7855 29.7429C80.4683 29.2552 80.3097 28.6539 80.3097 27.9389C80.3097 27.3234 80.4233 26.8144 80.6506 26.4119C80.8778 26.0095 81.188 25.6875 81.581 25.446C81.974 25.2045 82.4167 25.0223 82.9091 24.8991C83.4063 24.7713 83.92 24.679 84.4503 24.6222C85.0895 24.5559 85.608 24.4967 86.0057 24.4446C86.4034 24.3878 86.6922 24.3026 86.8722 24.1889C87.0568 24.0705 87.1491 23.8883 87.1491 23.642V23.5994C87.1491 23.0644 86.9905 22.6501 86.6733 22.3565C86.3561 22.063 85.8991 21.9162 85.3026 21.9162C84.6728 21.9162 84.1733 22.0535 83.804 22.3281C83.4394 22.6027 83.1932 22.9271 83.0653 23.3011L80.6648 22.9602C80.8542 22.2973 81.1667 21.7434 81.6023 21.2983C82.0379 20.8485 82.5705 20.5123 83.2003 20.2898C83.83 20.0625 84.526 19.9489 85.2884 19.9489C85.8139 19.9489 86.3371 20.0104 86.858 20.1335C87.3788 20.2566 87.8546 20.4602 88.2855 20.7443C88.7164 21.0237 89.062 21.4048 89.3224 21.8878C89.5876 22.3707 89.7202 22.9744 89.7202 23.6989V31H87.2486V29.5014H87.1634C87.0071 29.8045 86.7869 30.0885 86.5028 30.3537C86.2235 30.6141 85.8707 30.8248 85.4446 30.9858C85.0232 31.142 84.5284 31.2202 83.9602 31.2202ZM84.6278 29.331C85.1439 29.331 85.5914 29.2292 85.9702 29.0256C86.349 28.8172 86.6402 28.5426 86.8438 28.2017C87.0521 27.8608 87.1562 27.4891 87.1562 27.0866V25.8011C87.0758 25.8674 86.9384 25.929 86.7443 25.9858C86.5549 26.0426 86.3419 26.0923 86.1051 26.1349C85.8684 26.1776 85.634 26.2154 85.402 26.2486C85.17 26.2817 84.9688 26.3101 84.7983 26.3338C84.4148 26.3859 84.0715 26.4711 83.7685 26.5895C83.4654 26.7079 83.2263 26.8736 83.0511 27.0866C82.8759 27.295 82.7884 27.5649 82.7884 27.8963C82.7884 28.3698 82.9612 28.7273 83.3068 28.9688C83.6525 29.2102 84.0928 29.331 84.6278 29.331ZM92.3054 31V20.0909H94.7983V21.9091H94.9119C95.1108 21.2794 95.4517 20.794 95.9347 20.4531C96.4223 20.1075 96.9787 19.9347 97.6037 19.9347C97.7457 19.9347 97.9044 19.9418 98.0795 19.956C98.2595 19.9654 98.4086 19.982 98.527 20.0057V22.3707C98.4181 22.3329 98.2453 22.2997 98.0085 22.2713C97.7765 22.2382 97.5516 22.2216 97.3338 22.2216C96.8651 22.2216 96.4437 22.3234 96.0696 22.527C95.7003 22.7259 95.4091 23.0028 95.196 23.358C94.983 23.7131 94.8764 24.1226 94.8764 24.5866V31H92.3054ZM104.615 31.2131C103.522 31.2131 102.577 30.9858 101.782 30.5312C100.991 30.072 100.382 29.4233 99.9563 28.5852C99.5302 27.7424 99.3171 26.7505 99.3171 25.6094C99.3171 24.4872 99.5302 23.5024 99.9563 22.6548C100.387 21.8026 100.989 21.1397 101.76 20.6662C102.532 20.188 103.439 19.9489 104.48 19.9489C105.153 19.9489 105.787 20.0578 106.384 20.2756C106.985 20.4886 107.516 20.8201 107.975 21.2699C108.439 21.7197 108.803 22.2926 109.069 22.9886C109.334 23.6799 109.466 24.5038 109.466 25.4602V26.2486H100.525V24.5156H107.002C106.997 24.0232 106.891 23.5852 106.682 23.2017C106.474 22.8134 106.183 22.508 105.809 22.2855C105.439 22.063 105.008 21.9517 104.516 21.9517C103.99 21.9517 103.529 22.0795 103.131 22.3352C102.733 22.5862 102.423 22.9176 102.201 23.3295C101.983 23.7367 101.872 24.1842 101.867 24.6719V26.1847C101.867 26.8191 101.983 27.3636 102.215 27.8182C102.447 28.268 102.771 28.6136 103.188 28.8551C103.605 29.0919 104.092 29.2102 104.651 29.2102C105.025 29.2102 105.364 29.1581 105.667 29.054C105.97 28.9451 106.232 28.7865 106.455 28.5781C106.677 28.3698 106.846 28.1117 106.959 27.804L109.36 28.0739C109.208 28.7083 108.919 29.2623 108.493 29.7358C108.072 30.2045 107.532 30.5691 106.874 30.8295C106.216 31.0852 105.463 31.2131 104.615 31.2131ZM110.1 18.6634V16.4545H121.705V18.6634H117.21V31H114.596V18.6634H110.1ZM122.696 31V20.0909H125.189V21.9091H125.303C125.501 21.2794 125.842 20.794 126.325 20.4531C126.813 20.1075 127.369 19.9347 127.994 19.9347C128.136 19.9347 128.295 19.9418 128.47 19.956C128.65 19.9654 128.799 19.982 128.918 20.0057V22.3707C128.809 22.3329 128.636 22.2997 128.399 22.2713C128.167 22.2382 127.942 22.2216 127.724 22.2216C127.256 22.2216 126.834 22.3234 126.46 22.527C126.091 22.7259 125.8 23.0028 125.587 23.358C125.374 23.7131 125.267 24.1226 125.267 24.5866V31H122.696ZM133.57 31.2202C132.878 31.2202 132.256 31.0971 131.702 30.8509C131.152 30.5999 130.717 30.2306 130.395 29.7429C130.078 29.2552 129.919 28.6539 129.919 27.9389C129.919 27.3234 130.033 26.8144 130.26 26.4119C130.487 26.0095 130.797 25.6875 131.19 25.446C131.583 25.2045 132.026 25.0223 132.518 24.8991C133.016 24.7713 133.529 24.679 134.06 24.6222C134.699 24.5559 135.217 24.4967 135.615 24.4446C136.013 24.3878 136.302 24.3026 136.482 24.1889C136.666 24.0705 136.759 23.8883 136.759 23.642V23.5994C136.759 23.0644 136.6 22.6501 136.283 22.3565C135.965 22.063 135.509 21.9162 134.912 21.9162C134.282 21.9162 133.783 22.0535 133.413 22.3281C133.049 22.6027 132.803 22.9271 132.675 23.3011L130.274 22.9602C130.464 22.2973 130.776 21.7434 131.212 21.2983C131.647 20.8485 132.18 20.5123 132.81 20.2898C133.439 20.0625 134.135 19.9489 134.898 19.9489C135.423 19.9489 135.946 20.0104 136.467 20.1335C136.988 20.2566 137.464 20.4602 137.895 20.7443C138.326 21.0237 138.671 21.4048 138.932 21.8878C139.197 22.3707 139.33 22.9744 139.33 23.6989V31H136.858V29.5014H136.773C136.616 29.8045 136.396 30.0885 136.112 30.3537C135.833 30.6141 135.48 30.8248 135.054 30.9858C134.633 31.142 134.138 31.2202 133.57 31.2202ZM134.237 29.331C134.753 29.331 135.201 29.2292 135.58 29.0256C135.958 28.8172 136.25 28.5426 136.453 28.2017C136.661 27.8608 136.766 27.4891 136.766 27.0866V25.8011C136.685 25.8674 136.548 25.929 136.354 25.9858C136.164 26.0426 135.951 26.0923 135.714 26.1349C135.478 26.1776 135.243 26.2154 135.011 26.2486C134.779 26.2817 134.578 26.3101 134.408 26.3338C134.024 26.3859 133.681 26.4711 133.378 26.5895C133.075 26.7079 132.836 26.8736 132.661 27.0866C132.485 27.295 132.398 27.5649 132.398 27.8963C132.398 28.3698 132.571 28.7273 132.916 28.9688C133.262 29.2102 133.702 29.331 134.237 29.331ZM146.673 31.2131C145.584 31.2131 144.649 30.974 143.868 30.4957C143.091 30.0175 142.492 29.357 142.071 28.5142C141.654 27.6667 141.446 26.6913 141.446 25.5881C141.446 24.4801 141.659 23.5024 142.085 22.6548C142.511 21.8026 143.113 21.1397 143.889 20.6662C144.67 20.188 145.594 19.9489 146.659 19.9489C147.545 19.9489 148.328 20.1122 149.01 20.4389C149.696 20.7609 150.243 21.2178 150.651 21.8097C151.058 22.3968 151.29 23.0833 151.347 23.8693H148.889C148.79 23.3437 148.553 22.9058 148.179 22.5554C147.81 22.2003 147.315 22.0227 146.695 22.0227C146.169 22.0227 145.707 22.1648 145.31 22.4489C144.912 22.7282 144.602 23.1307 144.379 23.6562C144.161 24.1818 144.053 24.8116 144.053 25.5455C144.053 26.2888 144.161 26.928 144.379 27.4631C144.597 27.9934 144.902 28.4029 145.295 28.6918C145.693 28.9759 146.16 29.1179 146.695 29.1179C147.073 29.1179 147.412 29.0469 147.71 28.9048C148.013 28.758 148.267 28.5473 148.47 28.2727C148.674 27.9981 148.813 27.6643 148.889 27.2713H151.347C151.285 28.0431 151.058 28.7273 150.665 29.3239C150.272 29.9157 149.737 30.3797 149.06 30.7159C148.383 31.0473 147.587 31.2131 146.673 31.2131ZM155.801 27.5767L155.794 24.473H156.206L160.127 20.0909H163.131L158.309 25.4602H157.776L155.801 27.5767ZM153.458 31V16.4545H156.029V31H153.458ZM160.304 31L156.753 26.0355L158.486 24.2244L163.38 31H160.304Z" fill="#009ED8"/>
</svg>
