<svg width="56" height="44" viewBox="0 0 56 44" fill="none" xmlns="http://www.w3.org/2000/svg">
<path d="M17.7239 32.573C17.7239 32.1582 17.3937 31.823 16.9851 31.823H5.53418C5.1255 31.823 4.79529 32.1582 4.79529 32.573C4.79529 32.9878 5.12551 33.323 5.53418 33.323H16.9932C17.3931 33.323 17.7237 32.9878 17.7237 32.573H17.7239Z" fill="white"/>
<path d="M5.53418 34.9818C5.1255 34.9818 4.79529 35.3169 4.79529 35.7317C4.79529 36.1465 5.12551 36.4817 5.53418 36.4817H11.7592C12.1678 36.4817 12.498 36.1465 12.498 35.7317C12.498 35.3169 12.1678 34.9818 11.7592 34.9818H5.53418Z" fill="white"/>
<path d="M43.6413 18.9647C37.1033 18.9647 31.7826 24.3654 31.7826 31.0015C31.7826 37.6376 37.1034 43.0382 43.6413 43.0382C50.1793 43.0382 55.5 37.6375 55.5 31.0015C55.5 24.3654 50.1792 18.9647 43.6413 18.9647ZM43.6413 41.5384C37.9203 41.5384 33.2602 36.8082 33.2602 31.0015C33.2602 25.1945 37.9205 20.4645 43.6413 20.4645C49.3623 20.4645 54.0224 25.1947 54.0224 31.0015C54.0228 36.808 49.3712 41.5384 43.6413 41.5384Z" fill="white"/>
<path d="M50.6665 26.7746C50.6665 25.9982 50.3707 25.2656 49.8319 24.7183C48.7276 23.5975 46.9192 23.5975 45.7977 24.7183L43.6502 26.898L41.494 24.7094C40.3897 23.6064 38.5812 23.6064 37.4685 24.7183C36.9293 25.2656 36.6251 25.9981 36.6251 26.7746C36.6251 27.551 36.9209 28.2835 37.4685 28.8308L39.6071 31.0104L37.4685 33.1812C36.9293 33.7284 36.6251 34.461 36.6251 35.2374C36.6251 36.0138 36.9209 36.7378 37.4685 37.2936C38.4944 38.3349 40.4853 38.3349 41.5028 37.2936L43.6502 35.1139L45.7977 37.2936C46.328 37.8319 47.0669 38.1407 47.8147 38.1407C48.5624 38.1407 49.3013 37.8319 49.8316 37.2936C50.3708 36.7464 50.6662 36.0138 50.6662 35.2374C50.6662 34.461 50.3704 33.7285 49.8316 33.1812L47.693 31.0104L49.8316 28.8308C50.3624 28.275 50.6666 27.5514 50.6666 26.7746L50.6665 26.7746ZM48.7801 27.763L46.1195 30.4721C45.8325 30.7634 45.8325 31.24 46.1195 31.5313L48.7801 34.2319C49.041 34.4968 49.1799 34.8494 49.1799 35.2203C49.1799 35.5909 49.0406 35.9439 48.7801 36.2088C48.2669 36.7296 47.3455 36.7296 46.8323 36.2088L44.1633 33.4997C44.0156 33.3498 43.8331 33.2791 43.6418 33.2791C43.4505 33.2791 43.2591 33.3498 43.1202 33.4997L40.4512 36.2088C39.9729 36.6943 38.9818 36.6943 38.5123 36.2088C38.2513 35.9439 38.1037 35.5913 38.1037 35.2203C38.1037 34.8498 38.2513 34.4968 38.5123 34.2319L41.1813 31.5313C41.3206 31.3899 41.3987 31.1961 41.3987 31.0019C41.3987 30.7988 41.3206 30.6135 41.1813 30.4726L38.5123 27.7635C38.2513 27.4986 38.1037 27.146 38.1037 26.775C38.1037 26.4045 38.2513 26.0514 38.5035 25.7866C39.0427 25.2482 39.912 25.2482 40.4424 25.7776L43.1202 28.4867C43.4072 28.778 43.8767 28.778 44.1638 28.4867L46.8244 25.7861C47.3635 25.2478 48.2417 25.2389 48.7721 25.7861C49.0331 26.051 49.172 26.4037 49.172 26.7746C49.18 27.1451 49.0407 27.4982 48.7801 27.7631L48.7801 27.763Z" fill="white"/>
<path d="M37.4435 40.9653H6.77314C4.20167 40.9653 2.11381 39.0237 2.11381 36.6323V6.80419C2.11381 4.41286 4.20167 2.47126 6.77314 2.47126H16.6707V11.7551C16.6707 12.3552 17.0027 12.8845 17.5628 13.1848C17.838 13.3347 18.1417 13.4054 18.4453 13.4054C18.7489 13.4054 19.0622 13.3262 19.3374 13.1759L22.915 11.2257C22.9626 11.1993 23.029 11.1993 23.0762 11.2257L26.6538 13.1673C27.2043 13.4676 27.8779 13.4761 28.4284 13.1763C28.9885 12.876 29.3205 12.3467 29.3205 11.7466L29.3201 2.46232H39.2177C41.7891 2.46232 43.8866 4.40392 43.8866 6.79525V16.9705C43.8866 17.3853 44.247 17.7204 44.6931 17.7204C45.1391 17.7204 45.4996 17.3853 45.4996 16.9705L45.5 6.79525C45.5 3.57426 42.6817 0.961914 39.2181 0.961914L6.77276 0.96232C3.30913 0.96232 0.5 3.58319 0.5 6.79565V36.6238C0.5 39.8448 3.3183 42.4571 6.77276 42.4571L37.4431 42.4567C37.8892 42.4567 38.2496 42.1216 38.2496 41.7068C38.2501 41.3005 37.8892 40.9653 37.4431 40.9653L37.4435 40.9653ZM27.7076 11.7466C27.7076 11.7994 27.6792 11.8437 27.6316 11.8701C27.5748 11.8965 27.5271 11.8965 27.4704 11.8701L23.8928 9.92851C23.6175 9.77859 23.3043 9.69896 23.0006 9.69896C22.6874 9.69896 22.3838 9.77819 22.1085 9.92851L18.5309 11.8786C18.4833 11.905 18.4265 11.905 18.3697 11.8786C18.3129 11.8522 18.2937 11.8079 18.2937 11.7551V2.46273H27.7168V11.7466H27.7076Z" fill="white"/>
<path d="M24.2102 30.5251H29.6182C30.0269 30.5251 30.3571 30.1899 30.3571 29.7751C30.3571 29.3603 30.0269 29.0251 29.6182 29.0251H24.2102C23.1667 29.0251 22.3149 29.89 22.3149 30.9577V35.3703C22.3149 36.4295 23.1671 37.2941 24.2102 37.2941H30.6613C31.07 37.2941 31.4002 36.9589 31.4002 36.5441C31.4002 36.1293 31.07 35.7941 30.6613 35.7941H24.2102C23.9841 35.7941 23.8015 35.6088 23.8015 35.3793V30.9667C23.8015 30.7193 23.984 30.5251 24.2102 30.5251Z" fill="white"/>
</svg>
