<svg width="250" height="363" viewBox="0 0 250 363" fill="none" xmlns="http://www.w3.org/2000/svg">
<path d="M125 23.1012L233.253 85.7009V210.9L125 273.5L16.7468 210.9V85.7009L125 23.1012Z" fill="#009ED8"/>
<path d="M74.7684 180.723V69.2183C86.4169 54.7126 97.0703 63.1742 100.941 69.2183V121.114L221.268 1.0644C237.748 -2.31201 240.308 10.287 239.528 17.0085L74.7684 180.723Z" fill="#0ACF83"/>
<path d="M74.7684 238.017V202.712L103.778 175.219L120.934 191.777L74.7684 238.017Z" fill="white"/>
<path d="M189.888 236.042L115.631 161.784L185.816 90.863C205.779 88.6135 205.779 102.006 203.284 108.984L150.689 161.784L212.409 223.008L189.888 236.042Z" fill="white"/>
<path d="M14.065 351.5L4.41797 317.318H11.0774L17.2362 342.437H17.5533L24.1293 317.318H30.1879L36.7805 342.454H37.081L43.2397 317.318H49.8991L40.2521 351.5H34.1435L27.3004 327.516H27.0334L20.1737 351.5H14.065ZM58.6866 352.017C57.0621 352.017 55.5989 351.728 54.2971 351.15C53.0063 350.56 51.9827 349.692 51.226 348.546C50.4805 347.4 50.1078 345.987 50.1078 344.306C50.1078 342.86 50.3748 341.664 50.9089 340.718C51.443 339.772 52.1718 339.016 53.0953 338.448C54.0189 337.881 55.0592 337.452 56.2164 337.163C57.3848 336.863 58.592 336.646 59.8382 336.512C61.3404 336.356 62.5588 336.217 63.4934 336.095C64.4281 335.961 65.1068 335.761 65.5297 335.494C65.9636 335.216 66.1806 334.787 66.1806 334.209V334.109C66.1806 332.851 65.8078 331.878 65.0623 331.188C64.3168 330.498 63.2431 330.153 61.8411 330.153C60.3612 330.153 59.1873 330.476 58.3194 331.121C57.4627 331.766 56.8841 332.529 56.5836 333.408L50.9423 332.607C51.3874 331.049 52.1217 329.747 53.1454 328.701C54.1691 327.644 55.4209 326.854 56.9007 326.331C58.3806 325.797 60.0163 325.53 61.8077 325.53C63.0428 325.53 64.2723 325.674 65.4963 325.964C66.7202 326.253 67.8385 326.732 68.851 327.399C69.8636 328.056 70.6758 328.951 71.2878 330.086C71.9109 331.221 72.2225 332.64 72.2225 334.342V351.5H66.4142V347.978H66.214C65.8468 348.69 65.3294 349.358 64.6618 349.981C64.0053 350.593 63.1763 351.088 62.1749 351.467C61.1846 351.834 60.0218 352.017 58.6866 352.017ZM60.2555 347.578C61.4683 347.578 62.5198 347.339 63.41 346.86C64.3001 346.371 64.9844 345.725 65.4629 344.924C65.9525 344.123 66.1973 343.249 66.1973 342.304V339.283C66.0081 339.438 65.6854 339.583 65.2292 339.717C64.7842 339.85 64.2834 339.967 63.7271 340.067C63.1708 340.167 62.62 340.256 62.0748 340.334C61.5295 340.412 61.0566 340.479 60.6561 340.534C59.7548 340.657 58.9481 340.857 58.236 341.135C57.5239 341.413 56.9619 341.803 56.5502 342.304C56.1386 342.793 55.9327 343.427 55.9327 344.206C55.9327 345.319 56.3388 346.159 57.1511 346.727C57.9634 347.294 58.9982 347.578 60.2555 347.578ZM78.2978 351.5V325.864H84.1561V330.136H84.4231C84.8904 328.656 85.6916 327.516 86.8265 326.715C87.9726 325.903 89.28 325.496 90.7488 325.496C91.0826 325.496 91.4553 325.513 91.867 325.547C92.2898 325.569 92.6403 325.608 92.9185 325.663V331.221C92.6626 331.132 92.2565 331.054 91.7001 330.988C91.1549 330.91 90.6264 330.871 90.1145 330.871C89.013 330.871 88.0227 331.11 87.1436 331.588C86.2757 332.056 85.5914 332.707 85.0907 333.541C84.59 334.376 84.3397 335.338 84.3397 336.429V351.5H78.2978ZM107.226 352.001C104.656 352.001 102.436 351.467 100.567 350.398C98.7087 349.319 97.2789 347.795 96.2774 345.825C95.276 343.845 94.7753 341.514 94.7753 338.832C94.7753 336.195 95.276 333.881 96.2774 331.889C97.29 329.886 98.7031 328.328 100.517 327.216C102.33 326.092 104.461 325.53 106.909 325.53C108.489 325.53 109.98 325.786 111.382 326.298C112.795 326.798 114.042 327.577 115.121 328.634C116.211 329.691 117.068 331.038 117.691 332.673C118.314 334.298 118.626 336.234 118.626 338.482V340.334H97.6127V336.262H112.834C112.823 335.105 112.573 334.075 112.083 333.174C111.594 332.262 110.909 331.544 110.03 331.021C109.162 330.498 108.15 330.237 106.993 330.237C105.758 330.237 104.673 330.537 103.738 331.138C102.803 331.728 102.075 332.506 101.552 333.474C101.04 334.431 100.778 335.483 100.767 336.629V340.184C100.767 341.675 101.04 342.955 101.585 344.023C102.13 345.08 102.892 345.892 103.872 346.46C104.851 347.016 105.997 347.294 107.31 347.294C108.189 347.294 108.984 347.172 109.696 346.927C110.409 346.671 111.026 346.298 111.549 345.809C112.072 345.319 112.467 344.713 112.734 343.989L118.375 344.624C118.019 346.115 117.341 347.416 116.339 348.529C115.349 349.631 114.08 350.487 112.534 351.099C110.987 351.7 109.218 352.001 107.226 352.001ZM120.115 322.509V317.318H147.387V322.509H136.822V351.5H130.68V322.509H120.115ZM149.716 351.5V325.864H155.574V330.136H155.841C156.308 328.656 157.11 327.516 158.244 326.715C159.391 325.903 160.698 325.496 162.167 325.496C162.501 325.496 162.873 325.513 163.285 325.547C163.708 325.569 164.058 325.608 164.336 325.663V331.221C164.081 331.132 163.674 331.054 163.118 330.988C162.573 330.91 162.044 330.871 161.532 330.871C160.431 330.871 159.441 331.11 158.562 331.588C157.694 332.056 157.009 332.707 156.509 333.541C156.008 334.376 155.758 335.338 155.758 336.429V351.5H149.716ZM175.269 352.017C173.644 352.017 172.181 351.728 170.879 351.15C169.588 350.56 168.565 349.692 167.808 348.546C167.063 347.4 166.69 345.987 166.69 344.306C166.69 342.86 166.957 341.664 167.491 340.718C168.025 339.772 168.754 339.016 169.677 338.448C170.601 337.881 171.641 337.452 172.798 337.163C173.967 336.863 175.174 336.646 176.42 336.512C177.922 336.356 179.141 336.217 180.075 336.095C181.01 335.961 181.689 335.761 182.112 335.494C182.546 335.216 182.763 334.787 182.763 334.209V334.109C182.763 332.851 182.39 331.878 181.644 331.188C180.899 330.498 179.825 330.153 178.423 330.153C176.943 330.153 175.769 330.476 174.901 331.121C174.045 331.766 173.466 332.529 173.166 333.408L167.524 332.607C167.969 331.049 168.704 329.747 169.727 328.701C170.751 327.644 172.003 326.854 173.483 326.331C174.963 325.797 176.598 325.53 178.39 325.53C179.625 325.53 180.854 325.674 182.078 325.964C183.302 326.253 184.421 326.732 185.433 327.399C186.446 328.056 187.258 328.951 187.87 330.086C188.493 331.221 188.805 332.64 188.805 334.342V351.5H182.996V347.978H182.796C182.429 348.69 181.911 349.358 181.244 349.981C180.587 350.593 179.758 351.088 178.757 351.467C177.767 351.834 176.604 352.017 175.269 352.017ZM176.838 347.578C178.05 347.578 179.102 347.339 179.992 346.86C180.882 346.371 181.566 345.725 182.045 344.924C182.535 344.123 182.779 343.249 182.779 342.304V339.283C182.59 339.438 182.267 339.583 181.811 339.717C181.366 339.85 180.865 339.967 180.309 340.067C179.753 340.167 179.202 340.256 178.657 340.334C178.112 340.412 177.639 340.479 177.238 340.534C176.337 340.657 175.53 340.857 174.818 341.135C174.106 341.413 173.544 341.803 173.132 342.304C172.721 342.793 172.515 343.427 172.515 344.206C172.515 345.319 172.921 346.159 173.733 346.727C174.545 347.294 175.58 347.578 176.838 347.578ZM206.062 352.001C203.503 352.001 201.306 351.439 199.47 350.315C197.645 349.191 196.237 347.639 195.247 345.658C194.268 343.667 193.778 341.375 193.778 338.782C193.778 336.178 194.279 333.881 195.28 331.889C196.282 329.886 197.695 328.328 199.52 327.216C201.356 326.092 203.525 325.53 206.029 325.53C208.11 325.53 209.951 325.914 211.553 326.681C213.167 327.438 214.452 328.512 215.409 329.903C216.366 331.282 216.911 332.896 217.045 334.743H211.27C211.036 333.508 210.48 332.479 209.601 331.655C208.733 330.821 207.57 330.403 206.112 330.403C204.877 330.403 203.792 330.737 202.858 331.405C201.923 332.061 201.194 333.007 200.671 334.242C200.16 335.477 199.904 336.957 199.904 338.682C199.904 340.429 200.16 341.931 200.671 343.188C201.183 344.434 201.901 345.397 202.824 346.076C203.759 346.743 204.855 347.077 206.112 347.077C207.003 347.077 207.798 346.91 208.499 346.576C209.211 346.231 209.807 345.736 210.285 345.091C210.763 344.446 211.092 343.661 211.27 342.738H217.045C216.9 344.551 216.366 346.159 215.442 347.561C214.519 348.952 213.261 350.042 211.67 350.832C210.079 351.611 208.21 352.001 206.062 352.001ZM227.514 343.455L227.497 336.162H228.465L237.678 325.864H244.738L233.405 338.482H232.153L227.514 343.455ZM222.006 351.5V317.318H228.048V351.5H222.006ZM238.095 351.5L229.75 339.833L233.823 335.577L245.322 351.5H238.095Z" fill="#009ED8"/>
</svg>
