<svg width="55" height="56" viewBox="0 0 55 56" fill="none" xmlns="http://www.w3.org/2000/svg">
<path d="M21.5417 9.66669H12.5125C10.6647 9.66669 9.16669 11.1647 9.16669 13.0125V22.0417C9.16669 23.8895 10.6647 25.3875 12.5125 25.3875H21.5417C23.3895 25.3875 24.8875 23.8895 24.8875 22.0417V13.0125C24.8875 11.1647 23.3895 9.66669 21.5417 9.66669Z" stroke="white" stroke-width="2" stroke-linecap="round" stroke-linejoin="round"/>
<path d="M42.4875 9.66669H33.4584C31.6105 9.66669 30.1125 11.1647 30.1125 13.0125V22.0417C30.1125 23.8895 31.6105 25.3875 33.4584 25.3875H42.4875C44.3354 25.3875 45.8334 23.8895 45.8334 22.0417V13.0125C45.8334 11.1647 44.3354 9.66669 42.4875 9.66669Z" stroke="white" stroke-width="2" stroke-linecap="round" stroke-linejoin="round"/>
<path d="M21.5417 30.6125H12.5125C10.6647 30.6125 9.16669 32.1105 9.16669 33.9584V42.9875C9.16669 44.8354 10.6647 46.3334 12.5125 46.3334H21.5417C23.3895 46.3334 24.8875 44.8354 24.8875 42.9875V33.9584C24.8875 32.1105 23.3895 30.6125 21.5417 30.6125Z" stroke="white" stroke-width="2" stroke-linecap="round" stroke-linejoin="round"/>
<path d="M42.4875 30.6125H33.4584C31.6105 30.6125 30.1125 32.1105 30.1125 33.9584V42.9875C30.1125 44.8354 31.6105 46.3334 33.4584 46.3334H42.4875C44.3354 46.3334 45.8334 44.8354 45.8334 42.9875V33.9584C45.8334 32.1105 44.3354 30.6125 42.4875 30.6125Z" stroke="white" stroke-width="2" stroke-linecap="round" stroke-linejoin="round"/>
</svg>
