<svg width="32" height="32" viewBox="0 0 32 32" fill="none" xmlns="http://www.w3.org/2000/svg">
<rect width="32" height="32" rx="8" fill="#8833FF"/>
<g clip-path="url(#clip0_7_9271)">
<path d="M19.3332 19.3333L15.9998 16L12.6665 19.3333" stroke="white" stroke-width="2" stroke-linecap="round" stroke-linejoin="round"/>
<path d="M16 16V23.5" stroke="white" stroke-width="2" stroke-linecap="round" stroke-linejoin="round"/>
<path d="M22.9919 21.325C23.8047 20.8819 24.4467 20.1808 24.8168 19.3322C25.1868 18.4837 25.2637 17.5361 25.0354 16.6389C24.807 15.7418 24.2865 14.9463 23.5558 14.3779C22.8251 13.8095 21.9259 13.5006 21.0002 13.5H19.9502C19.698 12.5244 19.2278 11.6186 18.5752 10.8509C17.9225 10.0831 17.1042 9.47324 16.182 9.0672C15.2597 8.66116 14.2573 8.46949 13.2503 8.5066C12.2433 8.5437 11.2578 8.80861 10.3679 9.28142C9.47795 9.75422 8.7068 10.4226 8.1124 11.2363C7.51799 12.0501 7.11579 12.988 6.93603 13.9795C6.75627 14.9711 6.80363 15.9905 7.07456 16.9611C7.34548 17.9317 7.83291 18.8282 8.50021 19.5834" stroke="white" stroke-width="2" stroke-linecap="round" stroke-linejoin="round"/>
<path d="M19.3332 19.3333L15.9998 16L12.6665 19.3333" stroke="white" stroke-width="2" stroke-linecap="round" stroke-linejoin="round"/>
</g>
<defs>
<clipPath id="clip0_7_9271">
<rect width="20" height="20" fill="white" transform="translate(6 6)"/>
</clipPath>
</defs>
</svg>
